<svg width="48" height="48" viewBox="0 0 48 48" fill="none" xmlns="http://www.w3.org/2000/svg">
<path d="M36 27.375V29.625C36 30.2437 35.4214 30.75 34.7143 30.75H26.5714V37.875C26.5714 38.4937 25.9929 39 25.2857 39H22.7143C22.0071 39 21.4286 38.4937 21.4286 37.875V30.75H13.2857C12.5786 30.75 12 30.2437 12 29.625V27.375C12 26.7563 12.5786 26.25 13.2857 26.25H21.4286V19.125C21.4286 18.5063 22.0071 18 22.7143 18H25.2857C25.9929 18 26.5714 18.5063 26.5714 19.125V26.25H34.7143C35.4214 26.25 36 26.7563 36 27.375ZM48 10.5V43.5C48 45.9844 45.6964 48 42.8571 48H5.14286C2.30357 48 0 45.9844 0 43.5V10.5C0 8.01562 2.30357 6 5.14286 6H10.2857V1.125C10.2857 0.50625 10.8643 0 11.5714 0H15.8571C16.5643 0 17.1429 0.50625 17.1429 1.125V6H30.8571V1.125C30.8571 0.50625 31.4357 0 32.1429 0H36.4286C37.1357 0 37.7143 0.50625 37.7143 1.125V6H42.8571C45.6964 6 48 8.01562 48 10.5ZM42.8571 42.9375V15H5.14286V42.9375C5.14286 43.2469 5.43214 43.5 5.78571 43.5H42.2143C42.5679 43.5 42.8571 43.2469 42.8571 42.9375Z" fill="white"/>
</svg>
