<svg width="21" height="18" viewBox="0 0 21 18" fill="none" xmlns="http://www.w3.org/2000/svg">
<path d="M0.444016 7.94104C-0.141692 8.52675 -0.141692 9.47794 0.444016 10.0636L7.94109 17.5607C8.52679 18.1464 9.47799 18.1464 10.0637 17.5607C10.6494 16.975 10.6494 16.0238 10.0637 15.4381L5.12031 10.4994L19.4959 10.4994C20.3253 10.4994 20.9954 9.82936 20.9954 9C20.9954 8.17064 20.3253 7.50059 19.4959 7.50059L5.125 7.50059L10.059 2.56189C10.6447 1.97618 10.6447 1.02499 10.059 0.439281C9.4733 -0.146428 8.52211 -0.146428 7.9364 0.43928L0.43933 7.93635L0.444016 7.94104Z" fill="white"/>
</svg>
