<svg width="26" height="27" viewBox="0 0 26 27" fill="none" xmlns="http://www.w3.org/2000/svg">
<path d="M5.9895 11.1424C6.0805 12.1049 5.56687 12.9396 4.84937 12.9974C4.13187 13.0543 3.47562 12.321 3.3855 11.3585C3.2945 10.3951 3.80812 9.56126 4.52562 9.50351C5.24312 9.43964 5.89937 10.172 5.9895 11.1424ZM10.1002 21.7465C10.8177 21.6896 11.3305 20.8558 11.2395 19.8924C11.1494 18.922 10.4922 18.1896 9.77562 18.2544C9.05812 18.3113 8.5445 19.1451 8.6355 20.1085C8.72562 21.071 9.38362 21.8043 10.1002 21.7465ZM21.4752 9.50351C22.1927 9.56039 22.7055 10.3943 22.6145 11.3576C22.5244 12.328 21.8672 13.0604 21.1497 12.9965C20.4322 12.9388 19.9195 12.1049 20.0105 11.1415C20.1006 10.179 20.7577 9.44576 21.4752 9.50351ZM19.9895 15.7326C20.0805 14.7701 19.5669 13.9354 18.8502 13.8776C18.1327 13.8208 17.4765 14.554 17.3855 15.5165C17.2945 16.4799 17.8081 17.3138 18.5247 17.3715C19.2422 17.4354 19.8985 16.703 19.9895 15.7326ZM16.2252 18.2535C16.9427 18.3104 17.4555 19.1443 17.3645 20.1076C17.2744 21.078 16.6172 21.8104 15.8997 21.7456C15.1822 21.6888 14.6695 20.8549 14.7605 19.8915C14.8506 18.929 15.5077 18.1958 16.2252 18.2535Z" fill="white"/>
<path d="M11.1476 1.14465L2.93225 4.69102C2.74063 4.77677 2.56825 4.89227 2.416 5.03227C1.94022 5.14875 1.51735 5.42167 1.21524 5.80724C0.913127 6.19281 0.749286 6.66869 0.750002 7.15852V19.5573C0.750063 20.0672 0.898628 20.566 1.17755 20.9929C1.45647 21.4197 1.85367 21.7561 2.32063 21.9609L10.809 25.6823C11.0689 25.796 11.334 25.8555 11.5965 25.866C12.5008 26.2102 13.5001 26.2102 14.4044 25.866C14.6651 25.8555 14.9311 25.796 15.191 25.6823L23.6785 21.9609C24.1458 21.7562 24.5432 21.4197 24.8223 20.9927C25.1014 20.5656 25.25 20.0665 25.25 19.5564V7.15765C25.2508 6.68681 25.0994 6.22832 24.8185 5.85052C24.5375 5.47271 24.1419 5.19583 23.6908 5.06115C23.5372 4.90586 23.3563 4.78037 23.157 4.69102L14.8533 1.14465C14.2702 0.884349 13.6389 0.749817 13.0004 0.749817C12.362 0.749817 11.7306 0.884349 11.1476 1.14465ZM12.125 11.9588V23.6803C12.1248 23.7528 12.1066 23.8242 12.072 23.8879C12.0374 23.9517 11.9874 24.0058 11.9267 24.0455C11.8659 24.0852 11.7963 24.1091 11.724 24.1152C11.6517 24.1212 11.579 24.1092 11.5125 24.0801L3.02238 20.3588C2.86676 20.2902 2.73448 20.1779 2.64171 20.0354C2.54894 19.8929 2.4997 19.7264 2.5 19.5564V7.15765C2.50009 7.08456 2.51848 7.01266 2.55351 6.94851C2.58853 6.88436 2.63907 6.83001 2.7005 6.79042C2.76193 6.75083 2.83231 6.72726 2.90519 6.72186C2.97808 6.71646 3.05116 6.72941 3.11775 6.75952L11.0951 10.3628C11.4022 10.5014 11.6628 10.7258 11.8454 11.0089C12.0281 11.292 12.1252 11.6218 12.125 11.9588ZM13.875 23.6803V11.957C13.875 11.6202 13.9721 11.2906 14.1548 11.0076C14.3375 10.7247 14.5979 10.5005 14.9049 10.3619L22.8823 6.75865C22.9489 6.7285 23.0221 6.71556 23.095 6.721C23.168 6.72644 23.2384 6.75009 23.2999 6.78978C23.3613 6.82948 23.4118 6.88395 23.4468 6.94821C23.4818 7.01248 23.5001 7.08449 23.5 7.15765V19.5564C23.4999 19.7262 23.4504 19.8924 23.3574 20.0345C23.2645 20.1767 23.1323 20.2887 22.9768 20.357L14.4875 24.0793C14.421 24.1085 14.3482 24.1207 14.2758 24.1147C14.2034 24.1088 14.1336 24.0849 14.0727 24.0452C14.0118 24.0055 13.9618 23.9513 13.9271 23.8874C13.8925 23.8236 13.8742 23.7521 13.8741 23.6794M13 5.56252C11.5501 5.56252 10.375 5.17052 10.375 4.68752C10.375 4.20452 11.5501 3.81252 13 3.81252C14.4499 3.81252 15.625 4.20452 15.625 4.68752C15.625 5.17052 14.4499 5.56252 13 5.56252Z" fill="white"/>
</svg>
