<svg width="29" height="23" viewBox="0 0 29 23" fill="none" xmlns="http://www.w3.org/2000/svg">
<path d="M26.3636 17.8889H2.63636V2.55556H26.3636M26.3636 0H2.63636C1.93716 0 1.26659 0.269245 0.772173 0.748505C0.277759 1.22776 0 1.87778 0 2.55556V17.8889C0 18.5667 0.277759 19.2167 0.772173 19.6959C1.26659 20.1752 1.93716 20.4444 2.63636 20.4444H9.22727V23H19.7727V20.4444H26.3636C27.0628 20.4444 27.7334 20.1752 28.2278 19.6959C28.7222 19.2167 29 18.5667 29 17.8889V2.55556C29 1.87778 28.7222 1.22776 28.2278 0.748505C27.7334 0.269245 27.0628 0 26.3636 0Z" fill="#4742FF"/>
</svg>
