<svg width="28" height="22" viewBox="0 0 28 22" fill="none" xmlns="http://www.w3.org/2000/svg">
<path d="M5.04383 21.0877C3.65296 21.0877 2.46475 20.6062 1.47922 19.6433C0.493684 18.6804 0.000611373 17.5035 0 16.1126C0 14.9204 0.359182 13.8582 1.07755 12.9258C1.79591 11.9935 2.7359 11.3974 3.89751 11.1376C4.27961 9.73141 5.04383 8.59273 6.19016 7.72152C7.33648 6.85032 8.63565 6.41471 10.0877 6.41471C11.8759 6.41471 13.3931 7.0377 14.639 8.28368C15.885 9.52966 16.5077 11.0465 16.5071 12.8341C17.5617 12.9564 18.4369 13.4113 19.1326 14.1987C19.8284 14.9862 20.1759 15.9069 20.1753 16.9609C20.1753 18.1072 19.7743 19.0818 18.9721 19.8845C18.17 20.6872 17.1955 21.0883 16.0486 21.0877H5.04383ZM5.04383 19.2536H16.0486C16.6905 19.2536 17.2331 19.0319 17.6763 18.5887C17.7591 18.5059 17.8341 18.4197 17.9014 18.33C18.1946 17.9394 18.3412 17.483 18.3412 16.9609C18.3412 16.5997 18.271 16.27 18.1307 15.9717C18.0216 15.7398 17.8702 15.527 17.6763 15.3331C17.2331 14.8899 16.6905 14.6683 16.0486 14.6683H14.673V12.8341C14.673 11.6328 14.2719 10.5993 13.4698 9.73346C13.4249 9.68498 13.3787 9.63701 13.3313 9.58957C12.8188 9.07708 12.245 8.71151 11.6099 8.49287C11.1365 8.32992 10.6291 8.24857 10.0877 8.24883C8.81967 8.24944 7.73846 8.69666 6.84402 9.59049C5.94958 10.4843 5.50236 11.5655 5.50236 12.8341H5.04383C4.15734 12.8341 3.40076 13.1475 2.77411 13.7741C2.14745 14.4008 1.83412 15.1574 1.83412 16.0438C1.83412 16.9303 2.14745 17.6869 2.77411 18.3136C3.40076 18.9402 4.15734 19.2536 5.04383 19.2536Z" fill="white"/>
<path fill-rule="evenodd" clip-rule="evenodd" d="M15.7057 2.03002V3.52024C15.7057 3.81667 15.8234 4.10095 16.033 4.31055C16.2426 4.52016 16.5269 4.63791 16.8233 4.63791C17.1198 4.63791 17.404 4.52016 17.6136 4.31055C17.8232 4.10095 17.941 3.81667 17.941 3.52024V2.03002C17.941 1.7336 17.8232 1.44931 17.6136 1.23971C17.404 1.03011 17.1198 0.912354 16.8233 0.912354C16.5269 0.912354 16.2426 1.03011 16.033 1.23971C15.8234 1.44931 15.7057 1.7336 15.7057 2.03002ZM22.0894 15.6077C22.7853 14.5662 23.1568 13.3417 23.1568 12.089C23.1551 10.4098 22.4872 8.79988 21.2998 7.61251C20.1125 6.42513 18.5025 5.7573 16.8233 5.75558C15.5707 5.75558 14.3462 6.12703 13.3047 6.82295C12.636 7.26976 12.062 7.83743 11.6099 8.49287C12.245 8.71151 12.8188 9.07708 13.3313 9.58957C13.3787 9.63701 13.4249 9.68498 13.4698 9.73346C13.6052 9.54077 13.7575 9.35924 13.9255 9.19122C14.4987 8.61809 15.2289 8.22778 16.0238 8.06965C16.8188 7.91153 17.6428 7.99268 18.3916 8.30286C19.1404 8.61304 19.7805 9.1383 20.2308 9.81223C20.6811 10.4862 20.9214 11.2785 20.9214 12.089C20.9202 13.1755 20.4881 14.2172 19.7198 14.9855C19.2689 15.4364 18.7238 15.7715 18.1307 15.9717C18.271 16.27 18.3412 16.5997 18.3412 16.9609C18.3412 17.483 18.1946 17.9394 17.9014 18.33C18.3607 18.2507 18.812 18.1205 19.247 17.9404C20.4043 17.461 21.3935 16.6492 22.0894 15.6077ZM10.0624 6.78903C9.92652 6.73276 9.8031 6.65029 9.69913 6.54633L8.58147 5.42866C8.3715 5.21869 8.25354 4.93392 8.25354 4.63698C8.25354 4.34004 8.3715 4.05526 8.58147 3.8453C8.79143 3.63533 9.07621 3.51737 9.37315 3.51737C9.67008 3.51737 9.95486 3.63533 10.1648 3.8453L11.2825 4.96296C11.3865 5.06693 11.4689 5.19035 11.5252 5.32619C11.5815 5.46203 11.6104 5.60762 11.6104 5.75464C11.6104 5.90167 11.5815 6.04726 11.5252 6.1831C11.4689 6.31894 11.3865 6.44236 11.2825 6.54633C11.1785 6.65029 11.0551 6.73276 10.9193 6.78903C10.7834 6.84529 10.6378 6.87425 10.4908 6.87425C10.3438 6.87425 10.1982 6.84529 10.0624 6.78903ZM23.5847 6.78845C23.449 6.84455 23.3036 6.87336 23.1568 6.87324C22.9351 6.87416 22.7181 6.80911 22.5334 6.68636C22.3488 6.56361 22.2048 6.38872 22.1198 6.18392C22.0348 5.97912 22.0127 5.75368 22.0562 5.53626C22.0997 5.31885 22.2069 5.11929 22.3642 4.96296L23.4818 3.8453C23.5858 3.74133 23.7092 3.65886 23.8451 3.6026C23.9809 3.54633 24.1265 3.51737 24.2735 3.51737C24.4205 3.51737 24.5661 3.54633 24.702 3.6026C24.8378 3.65886 24.9612 3.74133 25.0652 3.8453C25.1692 3.94926 25.2516 4.07269 25.3079 4.20852C25.3642 4.34436 25.3931 4.48995 25.3931 4.63698C25.3931 4.78401 25.3642 4.9296 25.3079 5.06543C25.2516 5.20127 25.1692 5.32469 25.0652 5.42866L23.9475 6.54633C23.8437 6.65008 23.7204 6.73236 23.5847 6.78845ZM23.1558 17.3038C23.4528 17.3038 23.7376 17.4218 23.9475 17.6317L25.0652 18.7494C25.2752 18.9594 25.3931 19.2441 25.3931 19.5411C25.3931 19.838 25.2752 20.1228 25.0652 20.3327C24.8552 20.5427 24.5704 20.6607 24.2735 20.6607C23.9766 20.6607 23.6918 20.5427 23.4818 20.3327L22.3642 19.2151C22.1542 19.0051 22.0362 18.7203 22.0362 18.4234C22.0362 18.1265 22.1542 17.8417 22.3642 17.6317C22.5741 17.4218 22.8589 17.3038 23.1558 17.3038ZM25.3921 10.9714H26.8823C27.1788 10.9714 27.463 11.0891 27.6726 11.2987C27.8822 11.5083 28 11.7926 28 12.089C28 12.3854 27.8822 12.6697 27.6726 12.8793C27.463 13.0889 27.1788 13.2067 26.8823 13.2067H25.3921C25.0957 13.2067 24.8114 13.0889 24.6018 12.8793C24.3922 12.6697 24.2744 12.3854 24.2744 12.089C24.2744 11.7926 24.3922 11.5083 24.6018 11.2987C24.8114 11.0891 25.0957 10.9714 25.3921 10.9714Z" fill="white"/>
</svg>
