<svg width="34" height="34" viewBox="0 0 34 34" fill="none" xmlns="http://www.w3.org/2000/svg">
<path d="M31.875 17C31.8759 17.3607 31.7834 17.7156 31.6065 18.03C31.4296 18.3444 31.1744 18.6077 30.8656 18.7943L11.73 30.5004C11.4074 30.6979 11.0379 30.8058 10.6596 30.8128C10.2814 30.8198 9.90815 30.7257 9.57844 30.5402C9.25186 30.3576 8.97982 30.0913 8.79028 29.7688C8.60074 29.4462 8.50055 29.0789 8.5 28.7048V5.29523C8.50055 4.92107 8.60074 4.55382 8.79028 4.23123C8.97982 3.90864 9.25186 3.64235 9.57844 3.45976C9.90815 3.27428 10.2814 3.18019 10.6596 3.18719C11.0379 3.1942 11.4074 3.30205 11.73 3.4996L30.8656 15.2057C31.1744 15.3923 31.4296 15.6556 31.6065 15.97C31.7834 16.2844 31.8759 16.6392 31.875 17Z" fill="white"/>
</svg>
