<svg width="28" height="28" viewBox="0 0 28 28" fill="none" xmlns="http://www.w3.org/2000/svg">
<path d="M9.625 18.375H14.875V20.125H9.625V18.375Z" fill="white"/>
<path d="M21.2153 7L22.715 12.25H26.25V10.5H24.0354L22.8979 6.51963C22.7925 6.15449 22.5715 5.83337 22.2681 5.60446C21.9647 5.37555 21.5953 5.25117 21.2153 5.25H20.0349L19.3979 3.01962C19.2925 2.65449 19.0715 2.33337 18.7681 2.10446C18.4647 1.87555 18.0953 1.75117 17.7153 1.75H6.78475C6.40496 1.75131 6.03582 1.87564 5.73264 2.10437C5.42945 2.3331 5.20854 2.65392 5.103 3.01875L3.9655 7H1.75V8.75H5.285L6.78475 3.5H17.7153L18.2149 5.25H10.2847C9.90496 5.25131 9.53582 5.37564 9.23263 5.60437C8.92945 5.8331 8.70854 6.15392 8.603 6.51875L7.71488 9.625H6.74975C6.38501 9.62494 6.02939 9.73896 5.73268 9.9511C5.43598 10.1632 5.21305 10.4629 5.09512 10.808L4.0005 14H1.75V15.75H3.5V21.875C3.50069 22.3389 3.68529 22.7836 4.01333 23.1117C4.34137 23.4397 4.78608 23.6243 5.25 23.625V26.25H7V23.625H17.5V26.25H19.25V23.625C19.7139 23.6243 20.1586 23.4397 20.4867 23.1117C20.8147 22.7836 20.9993 22.3389 21 21.875V15.75H22.75V14H20.5004L19.4058 10.8089C19.2878 10.4635 19.0648 10.1637 18.7679 9.95136C18.4711 9.73907 18.1152 9.62495 17.7502 9.625H9.53488L10.2847 7H21.2153ZM19.25 16.625V18.375H17.5V20.125H19.25V21.875H5.25V20.125H7V18.375H5.25V16.625H19.25ZM18.9499 14.875H5.55012L6.74975 11.375H17.7502L18.9499 14.875Z" fill="white"/>
</svg>
